{"title":"Night Of The Living Dead Darkest 2015 Movies HDRip XviD New ☻rDX","uid":12614083,"size":739941774,"categoryP":"video","categoryS":"movies","magnet":"?xt=urn:btih:f47faad424a2adc0c37bfcc288cc23e771694973&amp;dn=Night+Of+The+Living+Dead+Darkest+2015+Movies+HDRip+XviD+New+%E2%98%BBrDX&amp;tr=udp%3A%2F%2Ftracker.leechers-paradise.org%3A6969&amp;tr=udp%3A%2F%2Fzer0day.ch%3A1337&amp;tr=udp%3A%2F%2Fopen.demonii.com%3A1337&amp;tr=udp%3A%2F%2Ftracker.coppersurfer.tk%3A6969&amp;tr=udp%3A%2F%2Fexodus.desync.com%3A6969","seeders":0,"leechers":1,"uploader":"basicssom","files":2,"time":1445494817,"description":"----------------------------------------------------------------\r\nNight Of The Living Dead Darkest 2015 English Movies HDRip XviD AAC New Source with sample ~ ☻rDX☻\r\n\r\nSCREEN SHOTS &amp; POSTER:\r\n  \nhttp://doctorhosts.com/2015/10/notldd/11.html  \nhttp://doctorhosts.com/2015/10/notldd/1.html  \nhttp://doctorhosts.com/2015/10/notldd/2.html  \nhttp://doctorhosts.com/2015/10/notldd/3.html  \nhttp://doctorhosts.com/2015/10/notldd/4.html  \nhttp://doctorhosts.com/2015/10/notldd/5.html  \nhttp://doctorhosts.com/2015/10/notldd/6.html  \nhttp://doctorhosts.com/2015/10/notldd/7.html  \nhttp://doctorhosts.com/2015/10/notldd/8.html  \nhttp://doctorhosts.com/2015/10/notldd/9.html  \nhttp://doctorhosts.com/2015/10/notldd/10.html\r\n\r\nFormat                                   : Matroska\r\nFormat version                           : Version 4 / Version 2\r\nFile size                                : 694 MiB\r\nDuration                                 : 1h 2mn\r\nOverall bit rate                         : 1 552 Kbps\r\nMovie name                               : Night Of The Living Dead Darkest 2015 English Movies HDRip XviD AAC New Source ~ rDX ~\r\n\r\nVideo\r\nID                                       : 1\r\nFormat                                   : MPEG-4 Visual\r\nFormat profile                           : Advanced   \r\nFormat settings, BVOP                    : Yes\r\nFormat settings, QPel                    : No\r\nFormat settings, GMC                     : No warppoints\r\nFormat settings, Matrix                  : Default (H.263)\r\nCodec ID                                 : V_MS/VFW/FOURCC / XVID\r\nCodec ID/Hint                            : XviD\r\nDuration                                 : 1h 2mn\r\nBit rate                                 : 1 393 Kbps\r\nWidth                                    : 848 pixels\r\nHeight                                   : 352 pixels\r\nDisplay aspect ratio                     : 2.40:1\r\nFrame rate mode                          : Constant\r\nFrame rate                               : 24.000 fps\r\nColor space                              : YUV\r\nChroma subsampling                       : 4:2:0\r\nBit depth                                : 8 bits\r\nScan type                                : Progressive\r\nCompression mode                         : Lossy\r\nBits/(Pixel*Frame)                       : 0.194\r\nStream size                              : 623 MiB (90%)\r\nTitle                                    : ~ rDX ~\r\nWriting library                          : XviD 67\r\nDefault                                  : Yes\r\nForced                                   : No\r\n\r\nAudio\r\nID                                       : 2\r\nFormat                                   : MPEG Audio\r\nFormat version                           : Version 1\r\nFormat profile                           : Layer 3\r\nMode                                     : Joint stereo\r\nMode extension                           : MS Stereo\r\nCodec ID                                 : A_MPEG/L3\r\nCodec ID/Hint                            : MP3\r\nDuration                                 : 1h 2mn\r\nBit rate mode                            : Constant\r\nBit rate                                 : 128 Kbps\r\nChannel(s)                               : 2 channels\r\nSampling rate                            : 48.0 KHz\r\nCompression mode                         : Lossy\r\nStream size                              : 57.3 MiB (8%)\r\nTitle                                    : ~ rDX ~\r\nDefault                                  : Yes\r\nForced                                   : No\r\n\r\nIMDB                                     : http://www.imdb.com/title/tt1512222","torrent":{"xt":"urn:btih:f47faad424a2adc0c37bfcc288cc23e771694973","amp;dn":"Night+Of+The+Living+Dead+Darkest+2015+Movies+HDRip+XviD+New+%E2%98%BBrDX","amp;tr":["udp%3A%2F%2Ftracker.leechers-paradise.org%3A6969","udp%3A%2F%2Fzer0day.ch%3A1337","udp%3A%2F%2Fopen.demonii.com%3A1337","udp%3A%2F%2Ftracker.coppersurfer.tk%3A6969","udp%3A%2F%2Fexodus.desync.com%3A6969"],"infoHash":"f47faad424a2adc0c37bfcc288cc23e771694973","infoHashBuffer":{"type":"Buffer","data":[244,127,170,212,36,162,173,192,195,123,252,194,136,204,35,231,113,105,73,115]},"announce":[],"urlList":[]}}